<svg xmlns="http://www.w3.org/2000/svg" viewBox="0 0 172.57 145.58"><defs><style>.cls-1{fill:#fbfbfb;}.cls-2{fill:#231f20;}.cls-3{fill:#282c3d;}.cls-4{fill:#f1f2f2;}.cls-5{fill:#202332;}.cls-6{fill:#405caa;}.cls-7{fill:#ef5ba1;}.cls-8{fill:#393d51;}.cls-9{fill:#65be6f;}.cls-10{fill:#ab85bc;}.cls-11{fill:#00aeef;}.cls-12{fill:#f9cb6c;}.cls-13{fill:#e6e7e8;}</style></defs><title>Asset 3</title><g id="Layer_2" data-name="Layer 2"><g id="Layer_1-2" data-name="Layer 1"><rect class="cls-1" y="0.37" width="172.57" height="119.93" rx="4.38"/><path class="cls-2" d="M4.38,0H168.19a4.38,4.38,0,0,1,4.38,4.38V101.3a0,0,0,0,1,0,0H0a0,0,0,0,1,0,0V4.38A4.38,4.38,0,0,1,4.38,0Z"/><rect class="cls-3" x="6.99" y="6.99" width="158.6" height="87.33"/><path class="cls-1" d="M58,142.82h56.87a.81.81,0,0,1,.81.81v1.95a0,0,0,0,1,0,0H57.16a0,0,0,0,1,0,0v-1.95A.81.81,0,0,1,58,142.82Z"/><path class="cls-1" d="M114.08,142.82H58.73c9.14,0,10.39-3.26,10.39-3.26l.41-2.05.49.09,30.65-13.34,3,15.3S105,142.82,114.08,142.82Z"/><polygon class="cls-4" points="99.88 120.29 100.67 124.26 70.02 137.6 69.53 137.51 72.95 120.29 86.42 120.29 99.88 120.29"/><rect class="cls-5" x="6.99" y="7.35" width="17.65" height="86.7"/><rect class="cls-3" x="6.99" y="13.58" width="17.65" height="7.01"/><rect class="cls-6" x="9.37" y="16.21" width="12.88" height="1.74"/><rect class="cls-6" x="9.49" y="9.41" width="12.88" height="1.74"/><rect class="cls-7" x="39.82" y="36.29" width="7.78" height="3.2" rx="1.51"/><rect class="cls-7" x="45.06" y="42.66" width="7.78" height="3.2" rx="1.51"/><rect class="cls-7" x="45.06" y="61.91" width="7.78" height="3.2" rx="1.51"/><rect class="cls-7" x="34.58" y="29.97" width="7.78" height="3.2" rx="1.51"/><rect class="cls-7" x="50.3" y="49.03" width="7.78" height="3.2" rx="1.51"/><rect class="cls-7" x="45.06" y="55.46" width="7.78" height="3.2" rx="1.51"/><rect class="cls-7" x="102.06" y="49.03" width="7.78" height="3.2" rx="1.51"/><rect class="cls-6" x="9.37" y="23.02" width="12.88" height="1.74"/><rect class="cls-6" x="9.49" y="29.82" width="12.88" height="1.74"/><circle class="cls-8" cx="29.88" cy="12.38" r="1.6"/><circle class="cls-8" cx="29.88" cy="18.79" r="1.6"/><circle class="cls-8" cx="29.88" cy="25.16" r="1.6"/><circle class="cls-8" cx="29.88" cy="31.53" r="1.6"/><circle class="cls-8" cx="29.88" cy="37.91" r="1.6"/><circle class="cls-8" cx="29.88" cy="44.28" r="1.6"/><circle class="cls-8" cx="29.88" cy="50.65" r="1.6"/><circle class="cls-8" cx="29.88" cy="57.02" r="1.6"/><circle class="cls-8" cx="29.88" cy="63.39" r="1.6"/><circle class="cls-8" cx="29.88" cy="69.76" r="1.6"/><circle class="cls-8" cx="29.88" cy="76.14" r="1.6"/><circle class="cls-8" cx="29.88" cy="82.51" r="1.6"/><circle class="cls-8" cx="29.88" cy="88.88" r="1.6"/><rect class="cls-9" x="53.62" y="10.78" width="30.66" height="3.2" rx="1.51"/><rect class="cls-10" x="61.57" y="49.03" width="36.99" height="3.2" rx="1.51"/><rect class="cls-11" x="85.06" y="80.91" width="8.06" height="3.2" rx="1.51"/><rect class="cls-11" x="50.3" y="80.91" width="8.06" height="3.2" rx="1.51"/><rect class="cls-10" x="113.32" y="49.03" width="22.71" height="3.2" rx="1.51"/><rect class="cls-10" x="56.33" y="87.28" width="15.54" height="3.2" rx="1.51"/><rect class="cls-12" x="51.09" y="36.32" width="13.1" height="3.2" rx="1.51"/><rect class="cls-12" x="56.33" y="42.66" width="13.1" height="3.2" rx="1.51"/><rect class="cls-12" x="56.33" y="61.79" width="13.1" height="3.2" rx="1.51"/><rect class="cls-11" x="34.58" y="10.78" width="15.55" height="3.2" rx="1.51"/><rect class="cls-9" x="67.69" y="36.32" width="25.24" height="3.2" rx="1.51"/><rect class="cls-9" x="72.92" y="61.79" width="24.28" height="3.2" rx="1.51"/><rect class="cls-7" x="45.06" y="68.22" width="7.78" height="3.2" rx="1.51"/><rect class="cls-12" x="56.33" y="68.1" width="13.1" height="3.2" rx="1.51"/><rect class="cls-9" x="61.57" y="80.91" width="20" height="3.2" rx="1.51"/><rect class="cls-9" x="53.87" y="17.19" width="34.63" height="3.2" rx="1.51"/><rect class="cls-9" x="72.92" y="42.68" width="29.13" height="3.2" rx="1.51"/><rect class="cls-11" x="34.58" y="17.19" width="15.55" height="3.2" rx="1.51"/><rect class="cls-11" x="50.3" y="74.53" width="7.78" height="3.2" rx="1.51"/><rect class="cls-11" x="45.06" y="87.28" width="7.78" height="3.2" rx="1.51"/><circle class="cls-13" cx="86.29" cy="110.8" r="3.76"/></g></g></svg>