<svg xmlns="http://www.w3.org/2000/svg" viewBox="0 0 98.29 153.58"><defs><style>.cls-1{fill:#3921ff;stroke:#3921ff;stroke-miterlimit:10;}</style></defs><title>Asset 10</title><g id="Layer_2" data-name="Layer 2"><g id="Background"><circle class="cls-1" cx="95.56" cy="3.73" r="2.23"/><circle class="cls-1" cx="76.29" cy="3.73" r="2.23"/><circle class="cls-1" cx="57.01" cy="3.73" r="2.23"/><circle class="cls-1" cx="2.73" cy="2.73" r="2.23"/><circle class="cls-1" cx="95.56" cy="41.1" r="2.23"/><circle class="cls-1" cx="76.29" cy="41.1" r="2.23"/><circle class="cls-1" cx="57.01" cy="41.1" r="2.23"/><circle class="cls-1" cx="2.73" cy="40.1" r="2.23"/><circle class="cls-1" cx="95.56" cy="22.42" r="2.23"/><circle class="cls-1" cx="76.29" cy="22.42" r="2.23"/><circle class="cls-1" cx="57.01" cy="22.42" r="2.23"/><circle class="cls-1" cx="2.73" cy="21.42" r="2.23"/><circle class="cls-1" cx="95.56" cy="78.47" r="2.23"/><circle class="cls-1" cx="76.29" cy="78.47" r="2.23"/><circle class="cls-1" cx="57.01" cy="78.47" r="2.23"/><circle class="cls-1" cx="2.73" cy="78.47" r="2.23"/><circle class="cls-1" cx="95.56" cy="150.84" r="2.23"/><circle class="cls-1" cx="76.29" cy="150.84" r="2.23"/><circle class="cls-1" cx="57.01" cy="150.84" r="2.23"/><circle class="cls-1" cx="2.73" cy="150.84" r="2.23"/><circle class="cls-1" cx="95.56" cy="97.16" r="2.23"/><circle class="cls-1" cx="76.29" cy="97.16" r="2.23"/><circle class="cls-1" cx="57.01" cy="97.16" r="2.23"/><circle class="cls-1" cx="2.73" cy="97.16" r="2.23"/><circle class="cls-1" cx="95.56" cy="59.79" r="2.23"/><circle class="cls-1" cx="76.29" cy="59.79" r="2.23"/><circle class="cls-1" cx="57.01" cy="59.79" r="2.23"/><circle class="cls-1" cx="2.73" cy="59.79" r="2.23"/></g></g></svg>