<svg xmlns="http://www.w3.org/2000/svg" width="655.152" height="561.497" viewBox="0 0 655.152 561.497">
  <defs>
    <style>
      .cls-1 {
        fill: #ffb9b9;
      }

      .cls-2 {
        fill: #2f2e41;
      }

      .cls-3 {
        fill: #191824;
      }

      .cls-4 {
        fill: #3f3d56;
      }

      .cls-5 {
        fill: #1a1926;
      }

      .cls-6 {
        opacity: 0.1;
      }

      .cls-12, .cls-6 {
        isolation: isolate;
      }

      .cls-7 {
        fill: #2c2b3c;
      }

      .cls-8 {
        fill: #3921ff;
      }

      .cls-9 {
        fill: #e6e6e6;
      }

      .cls-10 {
        fill: #fff;
      }

      .cls-11 {
        fill: #0f0e15;
      }

      .cls-12 {
        opacity: 0.15;
      }
    </style>
  </defs>
  <g id="Group_5" data-name="Group 5" transform="translate(0)">
    <path id="Path_319" data-name="Path 319" class="cls-1" d="M277.171,364.9l7.14,21.929,9.69-8.16-5.1-17.339Z" transform="translate(-54.886 -71.552)"/>
    <path id="Path_320" data-name="Path 320" class="cls-2" d="M322.014,350.661l2.55,34.169,61.707,1.53L413.3,448.067l14.789-6.12s-16.829-58.138-24.479-76.5-36.718-5.1-36.718-5.1l-2.55-5.1Z" transform="translate(-191.525 -150.635)"/>
    <path id="Path_321" data-name="Path 321" class="cls-2" d="M441.563,486.912s1.02,16.319,2.55,17.339,13.259-1.02,13.259-1.02,3.524.783,17.849-3.06c16.1-4.32-2.04-10.709-2.04-10.709s-11.73-7.65-16.829-11.22-8.67,4.08-8.67,4.08C448.7,485.382,441.563,486.912,441.563,486.912Z" transform="translate(-215.199 -175.712)"/>
    <path id="Path_322" data-name="Path 322" class="cls-3" d="M950.333,571.681l1.623,56.821,17.317,66.562s-3.788,11.364-1.082,14.07,15.152,7.576,15.152,7.576L973.061,574.927Z" transform="translate(-367.649 -192.292)"/>
    <path id="Path_323" data-name="Path 323" class="cls-3" d="M985.19,742.422s6.176,13.586-2.47,14.821-48.58,4.529-46.11-2.47,32.524-13.586,32.524-13.586Z" transform="translate(-364.91 -225.858)"/>
    <path id="Path_324" data-name="Path 324" class="cls-3" d="M1009.873,508.884s-6.494,35.175-10.823,41.128,2.165,49.245,2.165,49.245,9.741,62.233,5.411,71.973-3.247,6.494-2.706,11.905,1.623,9.741,0,14.611-1.623,4.329-2.165,7.035,0,17.317,0,17.317-23.27,8.117-27.058-3.788c0,0,5.411-7.576,3.788-13.529a72.069,72.069,0,0,1-2.706-18.4V675.018L950.887,581.94l-5.953-33.551s1.624-34.093,7.576-37.34S1009.873,508.884,1009.873,508.884Z" transform="translate(-366.58 -179.823)"/>
    <path id="Path_325" data-name="Path 325" class="cls-3" d="M997.959,771.013s8.117,17.858-3.247,19.481-63.856,5.953-60.609-3.247,42.751-17.858,42.751-17.858Z" transform="translate(-364.406 -231.443)"/>
    <circle id="Ellipse_42" data-name="Ellipse 42" class="cls-1" cx="21.646" cy="21.646" r="21.646" transform="translate(601.619 129.94)"/>
    <path id="Path_326" data-name="Path 326" class="cls-1" d="M1013.248,299.322l-.4,27.644-26.538.09s6.735-21.64,3.719-26.165S1013.248,299.322,1013.248,299.322Z" transform="translate(-374.773 -138.171)"/>
    <path id="Path_327" data-name="Path 327" class="cls-4" d="M965.5,348.955s18.94-24.352,33.551-14.07,20.023,34.634,20.023,34.634l-3.247,68.185s-8.117,9.741-3.247,16.235,7.576,4.87,3.788,9.741-8.117,8.658-6.494,10.282-1.623,2.706-1.623,2.706l-57.362,1.623s1.623-2.165-3.247-8.659,1.082-15.152,0-18.4-2.165.541-2.706-7.035S965.5,348.955,965.5,348.955Z" transform="translate(-366.578 -144.9)"/>
    <path id="Path_328" data-name="Path 328" class="cls-1" d="M972.707,525.809s-1.082,13.529-9.2,15.694c-3.044.812-5.327-.736-6.992-2.987a13.29,13.29,0,0,1-.425-14.91l2-3.208Z" transform="translate(-368.377 -182.137)"/>
    <path id="Path_329" data-name="Path 329" class="cls-4" d="M1025.978,318.5s.541,10.823,0,12.446-1.082,3.247,0,4.87.541,7.035-.541,7.576,2.165,5.412,1.082,8.658a23.487,23.487,0,0,1-2.706,5.412c-.541,1.082-1.413,3.021-1.413,3.021s-15.9-33.867-28.892-25.75-23.27,10.823-23.27,10.823S977.274,307.675,1025.978,318.5Z" transform="translate(-371.591 -141.771)"/>
    <path id="Path_330" data-name="Path 330" class="cls-4" d="M999.805,350.323s17.317,1.623,16.234,24.352,1.623,58.445,1.623,58.445-29.763,45.457-34.634,48.7-5.412,2.706-4.87,5.412,1.082,4.87-1.083,7.035a18.68,18.68,0,0,1-4.329,3.247s-17.317-5.953-15.693-11.364,9.2-14.07,9.2-14.07,12.988-21.105,13.529-24.352.541-2.706,2.165-4.329,5.953-8.117,5.953-11.364V421.755l-4.537-54.947a15.928,15.928,0,0,1,4.224-12.336A13.783,13.783,0,0,1,999.805,350.323Z" transform="translate(-368.959 -148.432)"/>
    <path id="Path_331" data-name="Path 331" class="cls-5" d="M980.985,262.783a8.82,8.82,0,0,1-8.173-1.871,6.674,6.674,0,0,1-1.321-7.992c1.3-2.159,3.828-3.214,6.233-3.965a55.183,55.183,0,0,1,16.389-2.5c2.65,0,5.416.225,7.684,1.6,1.122.678,2.072,1.61,3.181,2.309,2.039,1.285,4.489,1.712,6.728,2.605a17.258,17.258,0,0,1,9.835,10.416,20.8,20.8,0,0,1,.956,4.892,26.807,26.807,0,0,1-2.339,13.287c-3.02,6.584-8.767,12.12-9.579,19.318-3.094-2.6-4-6.953-6.4-10.2a13.232,13.232,0,0,0-7.223-4.9,4.206,4.206,0,0,1-2.187-.978,3.625,3.625,0,0,1-.684-1.971L992.6,272.127c-.3-2.176-.71-4.555-2.38-5.983a8.465,8.465,0,0,0-3.546-1.539,57.2,57.2,0,0,0-9.257-1.509" transform="translate(-371.68 -127.89)"/>
    <path id="Path_332" data-name="Path 332" class="cls-6" d="M1021.872,463.234l-30.378,39.423S1019.467,479.274,1021.872,463.234Z" transform="translate(-375.8 -170.817)"/>
    <path id="Path_333" data-name="Path 333" class="cls-6" d="M829.423,307.563l.288,37.232L812.068,371.26,826.5,341.587Z" transform="translate(-212.51 -58.794)"/>
    <path id="Path_334" data-name="Path 334" class="cls-7" d="M647.586,385.842h-184V382.05H380.153v3.792H195.4a12.446,12.446,0,0,0-12.446,12.446V650.241A12.446,12.446,0,0,0,195.4,662.687h452.19a12.446,12.446,0,0,0,12.446-12.446V398.289A12.446,12.446,0,0,0,647.586,385.842Z" transform="translate(-163.987 -156.851)"/>
    <rect id="Rectangle_817" data-name="Rectangle 817" class="cls-6" width="443.71" height="250.298" transform="translate(35.648 250.987)"/>
    <circle id="Ellipse_43" data-name="Ellipse 43" class="cls-8" cx="4.551" cy="4.551" r="4.551" transform="translate(252.573 235.059)"/>
    <rect id="Rectangle_818" data-name="Rectangle 818" class="cls-9" width="440.908" height="250.205" transform="translate(36.393 250.862)"/>
    <rect id="Rectangle_819" data-name="Rectangle 819" class="cls-10" width="415.692" height="217.34" transform="translate(49.001 267.959)"/>
    <rect id="Rectangle_820" data-name="Rectangle 820" class="cls-9" width="106.813" height="172.238" transform="translate(86.772 290.509)"/>
    <rect id="Rectangle_821" data-name="Rectangle 821" class="cls-8" width="89.011" height="47.411" transform="translate(212.024 290.509)"/>
    <rect id="Rectangle_822" data-name="Rectangle 822" class="cls-9" width="89.011" height="51.011" transform="translate(212.024 351.123)"/>
    <rect id="Rectangle_823" data-name="Rectangle 823" class="cls-9" width="89.011" height="47.411" transform="translate(212.024 415.337)"/>
    <rect id="Rectangle_824" data-name="Rectangle 824" class="cls-9" width="106.813" height="75.06" transform="translate(320.109 290.509)"/>
    <rect id="Rectangle_825" data-name="Rectangle 825" class="cls-8" width="106.813" height="75.06" transform="translate(320.109 387.687)"/>
    <path id="Path_335" data-name="Path 335" class="cls-7" d="M667.808,719.709h-43.3v-3.12a.619.619,0,0,0-.619-.619H609.04a.619.619,0,0,0-.619.619h0v3.12h-9.279v-3.12a.619.619,0,0,0-.619-.619H583.676a.619.619,0,0,0-.619.619h0v3.12h-9.279v-3.12a.619.619,0,0,0-.619-.619H558.313a.619.619,0,0,0-.619.619h0v3.12h-9.279v-3.12a.619.619,0,0,0-.619-.619H532.95a.619.619,0,0,0-.619.619h0v3.12h-9.279v-3.12a.619.619,0,0,0-.619-.619H507.586a.619.619,0,0,0-.619.619h0v3.12h-9.279v-3.12a.619.619,0,0,0-.619-.619H482.223a.619.619,0,0,0-.619.619h0v3.12h-9.279v-3.12a.618.618,0,0,0-.619-.619h-116.3a.619.619,0,0,0-.619.619h0v3.12h-9.279v-3.12a.619.619,0,0,0-.619-.619H330.043a.619.619,0,0,0-.619.619v3.12h-9.279v-3.12a.619.619,0,0,0-.619-.619H304.68a.619.619,0,0,0-.619.619h0v3.12h-9.279v-3.12a.619.619,0,0,0-.619-.619H279.317a.619.619,0,0,0-.619.619h0v3.12h-9.279v-3.12a.619.619,0,0,0-.619-.619H253.954a.619.619,0,0,0-.619.619h0v3.12h-9.279v-3.12a.619.619,0,0,0-.619-.619H228.59a.619.619,0,0,0-.619.619h0v3.12h-9.279v-3.12a.619.619,0,0,0-.619-.619H203.227a.619.619,0,0,0-.619.619h0v3.12H174.152a14.847,14.847,0,0,0-14.847,14.847v6.713a14.847,14.847,0,0,0,14.847,14.847H667.808a14.847,14.847,0,0,0,14.847-14.847v-6.713a14.847,14.847,0,0,0-14.847-14.847Z" transform="translate(-159.305 -222.975)"/>
    <path id="Path_336" data-name="Path 336" class="cls-11" d="M292.462,177.681a24.125,24.125,0,0,0-4.723,12.4c-.55,5.47-2.152,14.219-6.812,18.818-7.1,7.006-9.467,12.261-9.467,12.261l2.367,2.627c0-5.255,3.156-6.131,3.156-6.131l-.789,6.131.26.243c21.136,19.863,68.378,1.508,68.378,1.508l-1.578-15.764c3.945,1.752,5.523,14.013,5.523,14.013l6.312-1.752s-11.045-19.268-18.146-36.784S318.8,172.116,318.8,172.116C305.779,165.158,297.181,171.61,292.462,177.681Z" transform="translate(-181.514 -114.682)"/>
    <path id="Path_337" data-name="Path 337" class="cls-1" d="M390.055,173.267l7.65-49.978s-8.16-19.889,5.61-21.929,4.59,23.969,4.59,23.969l-4.59,47.938Z" transform="translate(-204.999 -101.246)"/>
    <path id="Path_338" data-name="Path 338" class="cls-1" d="M382.425,483.067c2.55,4.08,3.06,24.989,3.06,24.989l17.849-11.219-5.1-18.359Z" transform="translate(-203.488 -175.946)"/>
    <path id="Path_339" data-name="Path 339" class="cls-2" d="M341.505,347.482s-22.439,0-34.679,7.14c-3.934,2.295-5.076,6.434-4.814,10.994a23.7,23.7,0,0,0,22.326,22.06l34.505,2.134c-5.1,14.279,6.63,69.867,6.63,69.867l18.359-2.55s-2.55-18.869-2.04-19.889,5.1-40.8,2.04-61.707-44.878-12.24-44.878-12.24Z" transform="translate(-187.557 -150.006)"/>
    <path id="Path_340" data-name="Path 340" class="cls-2" d="M384.691,507.181s-1.53,14.789-1.02,16.829,21.419,3.06,40.288-2.55-2.55-11.729-2.55-11.729S408.66,501.062,405.09,498s-8.67,4.08-8.67,4.08C395.4,506.671,384.691,507.181,384.691,507.181Z" transform="translate(-203.714 -179.661)"/>
    <circle id="Ellipse_44" data-name="Ellipse 44" class="cls-1" cx="18.359" cy="18.359" r="18.359" transform="translate(110.446 104.541) rotate(-80.783)"/>
    <path id="Path_341" data-name="Path 341" class="cls-1" d="M312.488,228.455c6.63,9.69-1.53,15.3-1.53,15.3l-3.57,26.519s38.248,3.57,44.878-1.53-7.65-21.929-12.749-23.459-6.12-22.439-6.12-22.439Z" transform="translate(-188.629 -125.325)"/>
    <path id="Path_342" data-name="Path 342" class="cls-8" d="M309.439,244.311l-20.122-3.148-2.295,21.674s10.259,48.844,7.722,59.784,4.74,14.966,4.74,14.966,31.4-1.313,36.5-3.862,21.419,2.55,21.419,2.55a13.791,13.791,0,0,0,5.355-.765c3.06-1.02-7.9-73.692-7.9-73.692l-9.69-22.439-11.729,4.59L329.86,260.8Z" transform="translate(-184.582 -128.599)"/>
    <path id="Path_343" data-name="Path 343" class="cls-8" d="M207.751,148.477l20.4-26.009,14.279-35.188L222.54,79.63,214.38,108.7,200.1,126.038l-.51,3.06Z" transform="translate(-39.523 -15.768)"/>
    <path id="Path_344" data-name="Path 344" class="cls-1" d="M288.92,315.616l50.524,1.9s18.829-10.374,22.426,3.073-23.289,7.293-23.289,7.293l-48.149.906Z" transform="translate(-184.972 -143.316)"/>
    <path id="Path_345" data-name="Path 345" class="cls-8" d="M289.845,297.569,313.3,299.1l3.06,15.809s-28.441.51-39.66,0-.118-48.958,1.412-63.237,9.18-10.2,9.18-10.2l4.59,3.57Z" transform="translate(-181.54 -128.907)"/>
    <path id="Path_346" data-name="Path 346" class="cls-12" d="M139.253,197.652l20.4,8.16-22.439-4.591-1.53-29.068Z" transform="translate(-26.868 -34.09)"/>
    <path id="Path_347" data-name="Path 347" class="cls-11" d="M178.848,99.844l-19.633.467-14.05.335L141.155,83.8h37.693Z" transform="translate(-27.952 -16.595)"/>
  </g>
</svg>
