<svg xmlns="http://www.w3.org/2000/svg" viewBox="0 0 117.03 209.68"><defs><style>.cls-1{fill:#3921ff;stroke:#3921ff;stroke-miterlimit:10;}</style></defs><title>Asset 1</title><g id="Layer_2" data-name="Layer 2"><g id="Background"><circle class="cls-1" cx="21.47" cy="149.84" r="2.23"/><circle class="cls-1" cx="40.75" cy="149.84" r="2.23"/><circle class="cls-1" cx="60.02" cy="149.84" r="2.23"/><circle class="cls-1" cx="114.3" cy="150.84" r="2.23"/><circle class="cls-1" cx="21.47" cy="112.47" r="2.23"/><circle class="cls-1" cx="40.75" cy="112.47" r="2.23"/><circle class="cls-1" cx="60.02" cy="112.47" r="2.23"/><circle class="cls-1" cx="114.3" cy="113.47" r="2.23"/><circle class="cls-1" cx="21.47" cy="131.16" r="2.23"/><circle class="cls-1" cx="40.75" cy="131.16" r="2.23"/><circle class="cls-1" cx="60.02" cy="131.16" r="2.23"/><circle class="cls-1" cx="114.3" cy="132.16" r="2.23"/><circle class="cls-1" cx="21.47" cy="75.1" r="2.23"/><circle class="cls-1" cx="40.75" cy="75.1" r="2.23"/><circle class="cls-1" cx="60.02" cy="75.1" r="2.23"/><circle class="cls-1" cx="114.3" cy="76.1" r="2.23"/><circle class="cls-1" cx="21.47" cy="2.73" r="2.23"/><circle class="cls-1" cx="40.75" cy="2.73" r="2.23"/><circle class="cls-1" cx="60.02" cy="2.73" r="2.23"/><circle class="cls-1" cx="114.3" cy="2.73" r="2.23"/><circle class="cls-1" cx="21.47" cy="56.42" r="2.23"/><circle class="cls-1" cx="40.75" cy="56.42" r="2.23"/><circle class="cls-1" cx="60.02" cy="56.42" r="2.23"/><circle class="cls-1" cx="114.3" cy="57.42" r="2.23"/><circle class="cls-1" cx="21.47" cy="93.79" r="2.23"/><circle class="cls-1" cx="40.75" cy="93.79" r="2.23"/><circle class="cls-1" cx="60.02" cy="93.79" r="2.23"/><circle class="cls-1" cx="114.3" cy="94.79" r="2.23"/><circle class="cls-1" cx="21.47" cy="205.95" r="2.23"/><circle class="cls-1" cx="40.75" cy="205.95" r="2.23"/><circle class="cls-1" cx="60.02" cy="205.95" r="2.23"/><circle class="cls-1" cx="114.3" cy="206.95" r="2.23"/><circle class="cls-1" cx="21.47" cy="168.58" r="2.23"/><circle class="cls-1" cx="40.75" cy="168.58" r="2.23"/><circle class="cls-1" cx="60.02" cy="168.58" r="2.23"/><circle class="cls-1" cx="114.3" cy="169.58" r="2.23"/><circle class="cls-1" cx="21.47" cy="187.27" r="2.23"/><circle class="cls-1" cx="40.75" cy="187.27" r="2.23"/><circle class="cls-1" cx="60.02" cy="187.27" r="2.23"/><circle class="cls-1" cx="114.3" cy="188.27" r="2.23"/><circle class="cls-1" cx="2.73" cy="149.84" r="2.23"/><circle class="cls-1" cx="2.73" cy="112.47" r="2.23"/><circle class="cls-1" cx="2.73" cy="131.16" r="2.23"/><circle class="cls-1" cx="2.73" cy="75.1" r="2.23"/><circle class="cls-1" cx="2.73" cy="2.73" r="2.23"/><circle class="cls-1" cx="2.73" cy="56.42" r="2.23"/><circle class="cls-1" cx="2.73" cy="93.79" r="2.23"/><circle class="cls-1" cx="2.73" cy="205.95" r="2.23"/><circle class="cls-1" cx="2.73" cy="168.58" r="2.23"/><circle class="cls-1" cx="2.73" cy="187.27" r="2.23"/></g></g></svg>