<svg xmlns="http://www.w3.org/2000/svg" viewBox="0 0 123.5 123.5"><defs><style>.cls-1{fill:none;stroke:#3921ff;stroke-miterlimit:10;stroke-width:2.04px;}</style></defs><title>Asset 4</title><g id="Layer_2" data-name="Layer 2"><g id="Background"><line class="cls-1" x1="41.26" y1="119.47" x2="4.03" y2="82.24"/><line class="cls-1" x1="66.87" y1="122.78" x2="0.72" y2="56.63"/><line class="cls-1" x1="76.45" y1="121.21" x2="2.29" y2="47.05"/><line class="cls-1" x1="92.36" y1="114.82" x2="8.68" y2="31.14"/><line class="cls-1" x1="99.05" y1="110.36" x2="13.14" y2="24.45"/><line class="cls-1" x1="84.87" y1="118.48" x2="5.02" y2="38.63"/><line class="cls-1" x1="104.99" y1="105.15" x2="18.35" y2="18.51"/><line class="cls-1" x1="55.62" y1="122.68" x2="0.82" y2="67.88"/><line class="cls-1" x1="110.22" y1="99.24" x2="24.26" y2="13.28"/><line class="cls-1" x1="114.71" y1="92.58" x2="30.92" y2="8.79"/><line class="cls-1" x1="118.4" y1="85.12" x2="38.38" y2="5.1"/><line class="cls-1" x1="122.76" y1="56.04" x2="67.46" y2="0.74"/><line class="cls-1" x1="119.72" y1="41.85" x2="81.65" y2="3.78"/><line class="cls-1" x1="122.78" y1="67.2" x2="56.3" y2="0.72"/><line class="cls-1" x1="121.17" y1="76.74" x2="46.76" y2="2.33"/></g></g></svg>